<?xml version="1.0" encoding="UTF-8"?><svg id="Capa_2" xmlns="http://www.w3.org/2000/svg" viewBox="0 0 68 19.08"><defs><style>.cls-1{fill:#fff;}</style></defs><g id="Capa_1-2"><g><g><path class="cls-1" d="M8.6,18.85c-.23,.05-.52,.1-.89,.15-.36,.05-.68,.08-.93,.08-.91,0-1.69-.14-2.35-.41-.66-.27-1.26-.66-1.81-1.17-.55-.5-.95-.91-1.2-1.21-.25-.3-.49-.66-.73-1.09-.24-.43-.41-.9-.52-1.42-.11-.52-.17-1.13-.17-1.84,0-1.09,.11-2.04,.32-2.84,.21-.8,.61-1.61,1.21-2.44,.59-.83,1.39-1.51,2.39-2.05,1-.54,2.07-.81,3.2-.81,1.96,0,3.63,.72,5.01,2.17,1.37,1.45,2.06,3.21,2.06,5.28v7.27h-3v-7.4c0-1.11-.4-2.08-1.22-2.9-.81-.82-1.76-1.23-2.87-1.23s-2.12,.43-2.91,1.28c-.79,.86-1.19,1.89-1.19,3.11s.4,2.29,1.21,3.16c.81,.87,1.81,1.31,2.99,1.31s2.23-.5,3.06-1.49v3.85c-.32,.17-.62,.3-.88,.4-.26,.09-.52,.18-.78,.24"/><path class="cls-1" d="M20.88,18.52c-1.69,0-3.02-.47-3.98-1.42-.97-.95-1.45-2.24-1.45-3.87V0h3V4.08h2.02v2.98h-2.02v6.02c0,.63,.24,1.18,.71,1.66,.47,.48,1.02,.71,1.66,.71h.49v3.06h-.41Z"/><path class="cls-1" d="M25.46,12.66c-.07,0-.14-.04-.23-.11-.09-.08-.17-.19-.26-.34-.1-.29-.15-.57-.15-.86,0-.3,.06-.57,.17-.81,.11-.23,.24-.35,.36-.35h6.97c-.63-2.17-1.95-3.26-3.95-3.26-1.17,0-2.16,.43-2.97,1.29-.81,.86-1.22,1.9-1.22,3.13s.4,2.26,1.19,3.1c.8,.84,1.78,1.26,2.95,1.26,.52,0,.98-.08,1.39-.25,.4-.17,.68-.31,.83-.41,.15-.11,.4-.35,.76-.72l2,2.28c-.7,.78-1.44,1.35-2.22,1.71-.78,.36-1.67,.53-2.68,.53-2.05,0-3.77-.72-5.17-2.16-1.4-1.44-2.09-3.22-2.09-5.33s.68-3.85,2.03-5.34c1.36-1.48,3-2.23,4.93-2.23s3.68,.76,5.14,2.29c1.46,1.52,2.19,3.31,2.19,5.34l-.07,1.23h-9.92Z"/></g><polygon class="cls-1" points="38.93 4.08 41.37 8.5 43.83 4.08 47.31 4.08 43.27 11.07 47.27 18.52 43.81 18.52 41.37 13.64 38.93 18.52 35.45 18.52 39.45 11.07 35.43 4.08 38.93 4.08"/><g><path class="cls-1" d="M53.14,18.52c-1.69,0-3.02-.47-3.98-1.42-.97-.95-1.45-2.24-1.45-3.87V0h3V4.08h2.02v2.98h-2.02v6.02c0,.63,.24,1.18,.71,1.66,.47,.48,1.02,.71,1.66,.71h.49v3.06h-.41Z"/><path class="cls-1" d="M53.65,11.33c0-2.21,.67-4.02,2.02-5.44,1.35-1.42,3.06-2.13,5.14-2.13s3.84,.71,5.18,2.12c1.34,1.41,2.01,3.23,2.01,5.46s-.64,4.08-1.94,5.41c-1.29,1.33-3.04,1.99-5.25,1.99s-3.92-.67-5.21-2c-1.3-1.34-1.95-3.13-1.95-5.39m7.16,4.26c1.2,0,2.18-.4,2.95-1.2,.76-.8,1.14-1.84,1.14-3.1s-.39-2.33-1.16-3.16c-.77-.83-1.75-1.24-2.94-1.24s-2.16,.41-2.91,1.24c-.76,.83-1.13,1.88-1.13,3.16s.38,2.25,1.15,3.07c.76,.82,1.73,1.23,2.9,1.23"/><path class="cls-1" d="M8.6,18.85c-.23,.05-.52,.1-.89,.15-.36,.05-.68,.08-.93,.08-.91,0-1.69-.14-2.35-.41-.66-.27-1.26-.66-1.81-1.17-.55-.5-.95-.91-1.2-1.21-.25-.3-.49-.66-.73-1.09-.24-.43-.41-.9-.52-1.42-.11-.52-.17-1.13-.17-1.84,0-1.09,.11-2.04,.32-2.84,.21-.8,.61-1.61,1.21-2.44,.59-.83,1.39-1.51,2.39-2.05,1-.54,2.07-.81,3.2-.81,1.96,0,3.63,.72,5.01,2.17,1.37,1.45,2.06,3.21,2.06,5.28v7.27h-3v-7.4c0-1.11-.4-2.08-1.22-2.9-.81-.82-1.76-1.23-2.87-1.23s-2.12,.43-2.91,1.28c-.79,.86-1.19,1.89-1.19,3.11s.4,2.29,1.21,3.16c.81,.87,1.81,1.31,2.99,1.31s2.23-.5,3.06-1.49v3.85c-.32,.17-.62,.3-.88,.4-.26,.09-.52,.18-.78,.24"/><path class="cls-1" d="M20.88,18.52c-1.69,0-3.02-.47-3.98-1.42-.97-.95-1.45-2.24-1.45-3.87V0h3V4.08h2.02v2.98h-2.02v6.02c0,.63,.24,1.18,.71,1.66,.47,.48,1.02,.71,1.66,.71h.49v3.06h-.41Z"/><path class="cls-1" d="M25.46,12.66c-.07,0-.14-.04-.23-.11-.09-.08-.17-.19-.26-.34-.1-.29-.15-.57-.15-.86,0-.3,.06-.57,.17-.81,.11-.23,.24-.35,.36-.35h6.97c-.63-2.17-1.95-3.26-3.95-3.26-1.17,0-2.16,.43-2.97,1.29-.81,.86-1.22,1.9-1.22,3.13s.4,2.26,1.19,3.1c.8,.84,1.78,1.26,2.95,1.26,.52,0,.98-.08,1.39-.25,.4-.17,.68-.31,.83-.41,.15-.11,.4-.35,.76-.72l2,2.28c-.7,.78-1.44,1.35-2.22,1.71-.78,.36-1.67,.53-2.68,.53-2.05,0-3.77-.72-5.17-2.16-1.4-1.44-2.09-3.22-2.09-5.33s.68-3.85,2.03-5.34c1.36-1.48,3-2.23,4.93-2.23s3.68,.76,5.14,2.29c1.46,1.52,2.19,3.31,2.19,5.34l-.07,1.23h-9.92Z"/></g><polygon class="cls-1" points="38.93 4.08 41.37 8.5 43.83 4.08 47.31 4.08 43.27 11.07 47.27 18.52 43.81 18.52 41.37 13.64 38.93 18.52 35.45 18.52 39.45 11.07 35.43 4.08 38.93 4.08"/><g><path class="cls-1" d="M53.14,18.52c-1.69,0-3.02-.47-3.98-1.42-.97-.95-1.45-2.24-1.45-3.87V0h3V4.08h2.02v2.98h-2.02v6.02c0,.63,.24,1.18,.71,1.66,.47,.48,1.02,.71,1.66,.71h.49v3.06h-.41Z"/><path class="cls-1" d="M53.65,11.33c0-2.21,.67-4.02,2.02-5.44,1.35-1.42,3.06-2.13,5.14-2.13s3.84,.71,5.18,2.12c1.34,1.41,2.01,3.23,2.01,5.46s-.64,4.08-1.94,5.41c-1.29,1.33-3.04,1.99-5.25,1.99s-3.92-.67-5.21-2c-1.3-1.34-1.95-3.13-1.95-5.39m7.16,4.26c1.2,0,2.18-.4,2.95-1.2,.76-.8,1.14-1.84,1.14-3.1s-.39-2.33-1.16-3.16c-.77-.83-1.75-1.24-2.94-1.24s-2.16,.41-2.91,1.24c-.76,.83-1.13,1.88-1.13,3.16s.38,2.25,1.15,3.07c.76,.82,1.73,1.23,2.9,1.23"/></g></g></g></svg>