<?xml version="1.0" encoding="UTF-8"?><svg id="Capa_2" xmlns="http://www.w3.org/2000/svg" viewBox="0 0 55.96 38.92"><defs><style>.cls-1{fill:#fff;}</style></defs><g id="Capa_1-2"><g><path class="cls-1" d="M40.38,24.65s-.03-.08-.05-.12c-.18-.46-.36-.92-.54-1.38-.06-.15-.2-.32-.14-.43,.06-.11,.27-.14,.42-.19,.27-.11,.27-.11,.15-.36-.03-.07-.06-.08-.13-.05-.55,.22-1.11,.43-1.66,.65-.04,.01-.08,.01-.07,.09,.03,.23,.13,.3,.34,.22,.12-.04,.24-.09,.35-.14,.11-.06,.15-.01,.19,.09,.19,.51,.39,1.02,.59,1.52,.14,.35,.14,.36,.48,.18,.03-.02,.08-.02,.07-.07m-23.82,6.97c.02-.12-.06-.23-.19-.25-.04,0-.09,0-.13,.02-.38,.15-.75,.3-1.13,.44-.12,.04-.13,.09-.09,.2,.25,.63,.49,1.26,.74,1.89,.12,.3,.12,.29,.41,.18,.12-.04,.14-.09,.09-.21-.1-.23-.18-.46-.27-.69-.04-.09-.02-.13,.07-.16,.21-.07,.41-.17,.62-.24,.13-.04,.12-.1,.08-.2-.05-.17-.13-.21-.28-.12-.05,.02-.09,.04-.14,.06-.18,.06-.4,.24-.52,.17-.13-.08-.15-.34-.24-.52-.05-.1-.02-.14,.08-.18,.26-.1,.52-.2,.78-.3,.05-.02,.11-.01,.11-.09m2.68,.09c0-.2-.13-.28-.33-.19-.04,.01-.08,.03-.12,.05-.17,.06-.38,.21-.51,.16-.15-.06-.15-.33-.23-.49-.07-.13-.02-.18,.11-.23,.25-.09,.49-.2,.74-.28,.17-.06,.08-.15,.05-.23-.03-.08-.05-.18-.19-.12-.4,.17-.8,.32-1.2,.47-.12,.04-.14,.08-.09,.2,.25,.63,.49,1.26,.74,1.89,.12,.31,.12,.3,.42,.19,.11-.04,.13-.09,.08-.19-.1-.23-.18-.47-.28-.71-.03-.08-.02-.12,.07-.15,.22-.08,.44-.17,.65-.26,.04-.02,.11-.02,.09-.11m18.08-7.43v.02c-.09,0-.18,0-.27,0-.15-.01-.28-.05-.32-.22-.03-.17,.06-.29,.21-.36,.15-.07,.32-.08,.48-.04,.13,.02,.17-.04,.18-.16,0-.11,.05-.21-.12-.24-.33-.06-.67,.02-.93,.24-.23,.19-.32,.5-.22,.77,.08,.28,.34,.47,.63,.46,.15,0,.29-.02,.44-.03,.26-.01,.4,.07,.44,.26,.04,.19-.07,.35-.31,.43-.16,.04-.33,.04-.49-.01-.14-.03-.19,.04-.21,.17-.02,.13-.03,.2,.12,.23,.34,.09,.71,.02,1-.19,.27-.2,.39-.54,.28-.86-.1-.32-.28-.46-.67-.48-.08,0-.16,0-.24,0m10.18-3.94h0c-.1,0-.19,.01-.29,0-.15-.01-.28-.05-.31-.22-.03-.17,.06-.27,.2-.35,.16-.07,.33-.09,.5-.05,.12,.02,.17-.04,.17-.15,0-.1,.07-.22-.11-.24-.33-.07-.68,.02-.94,.24-.23,.18-.31,.49-.22,.76,.1,.3,.31,.46,.64,.47,.14,0,.29-.02,.44-.03,.26-.01,.4,.08,.43,.27,.03,.2-.07,.33-.3,.42-.12,.04-.25,.05-.38,.02-.06-.01-.11-.03-.17-.03-.15-.02-.15,.11-.17,.2-.02,.09-.03,.17,.1,.2,.36,.1,.75,.03,1.05-.2,.27-.2,.37-.56,.25-.87-.09-.3-.29-.44-.67-.46-.07,0-.15,0-.22,.01M9.13,35.04c.03,.35,.19,.68,.44,.93,.55,.54,1.57,.35,1.9-.34,.03-.06,.1-.14-.03-.18-.1-.03-.2-.18-.3,0-.06,.1-.13,.19-.23,.25-.3,.2-.65,.2-.91,.01-.31-.23-.48-.74-.37-1.09,.12-.32,.42-.53,.76-.54,.08,0,.16,.01,.24,.03,.19,.03,.16-.13,.21-.23,.05-.12-.03-.14-.12-.16-.76-.22-1.6,.42-1.6,1.32h0Zm12.2-5.65s-.05,.01-.07,.02c-.43,.17-.86,.34-1.29,.5-.1,.04-.06,.09-.04,.15,.27,.7,.55,1.4,.82,2.11,.04,.1,.07,.11,.17,.07,.41-.16,.81-.33,1.22-.47,.15-.06,.11-.13,.06-.23-.04-.1-.04-.21-.2-.13-.12,.06-.24,.11-.37,.15-.18,.06-.38,.23-.52,.16-.13-.07-.15-.33-.23-.5-.05-.1-.01-.13,.08-.16,.19-.07,.38-.16,.59-.22,.17-.06,.06-.15,.04-.22-.02-.08-.03-.18-.17-.12-.19,.09-.39,.15-.58,.23-.09,.04-.14,.03-.17-.07-.04-.12-.08-.24-.14-.35-.06-.13-.05-.19,.1-.25,.26-.08,.51-.19,.77-.29,.06-.02,.11-.04,.07-.12-.04-.08-.04-.21-.14-.26h0Zm20.65-6.9c-.08,.02-.08-.04-.1-.09-.05-.13-.1-.28-.16-.41-.05-.1-.02-.14,.08-.18,.27-.1,.53-.21,.8-.3,.17-.06,.06-.15,.04-.22-.02-.07-.02-.19-.17-.13-.42,.17-.84,.33-1.26,.49-.08,.03-.11,.06-.07,.15,.28,.71,.55,1.42,.83,2.12,.03,.08,.07,.1,.15,.06,.41-.16,.82-.33,1.24-.48,.14-.05,.1-.13,.06-.21-.04-.09-.02-.21-.19-.14-.26,.12-.53,.21-.79,.32-.1,.04-.13,.02-.16-.07-.05-.15-.1-.29-.16-.42-.05-.11,0-.14,.08-.18,.18-.07,.36-.15,.55-.21,.19-.05,.09-.15,.06-.24-.03-.11-.08-.15-.2-.09-.2,.08-.41,.16-.62,.23h0Zm-17.26,8.23c0-.2-.13-.29-.31-.22-.1,.04-.2,.08-.3,.12-.18,.06-.38,.24-.52,.16-.13-.07-.15-.33-.23-.5-.05-.1-.01-.13,.08-.16,.19-.07,.38-.16,.59-.22,.17-.06,.06-.15,.04-.22-.02-.07-.03-.18-.17-.12-.19,.09-.39,.15-.58,.23-.09,.04-.14,.02-.17-.07-.04-.13-.09-.25-.15-.37-.06-.12-.03-.18,.1-.22,.26-.09,.51-.2,.77-.29,.16-.05,.08-.14,.05-.22-.03-.08-.02-.2-.18-.14-.42,.17-.84,.33-1.26,.49-.07,.03-.1,.05-.07,.14,.28,.71,.56,1.43,.83,2.14,.03,.08,.06,.09,.14,.06,.42-.17,.85-.33,1.27-.5,.03-.02,.09-.02,.07-.09h0Zm9.17-3.53c.43-.1,.44-.11,.44-.52,0-.05,0-.1,0-.15-.02-.11,.03-.16,.13-.19,.2-.06,.4-.14,.58-.23,.19-.1,.3-.05,.43,.11,.26,.31,.27,.31,.64,.14,.01,0,.02-.02,.03-.02-.02-.03-.05-.06-.07-.09-.51-.55-1.02-1.1-1.52-1.65-.22-.23-.21-.22-.51-.12-.1,.02-.16,.12-.15,.22,0,.47,0,.94,0,1.41,0,.36,0,.73,0,1.1h0Zm-4.83,.73s.01-.02,.02-.03c.27-.31,.31-.62,.13-.94-.16-.27-.44-.36-.84-.27-.29,.07-.56,.21-.84,.3-.11,.04-.12,.08-.08,.19,.25,.63,.49,1.26,.74,1.89,.12,.31,.12,.31,.44,.18,.11-.04,.11-.09,.07-.18-.1-.22-.17-.45-.27-.67-.03-.08-.03-.12,.06-.15,.11-.06,.24-.05,.33,.03,.22,.17,.44,.32,.66,.48,.07,.06,.16,.09,.25,.06,.12-.05,.24-.1,.39-.16l-1.07-.74Zm16.22-6.29c.3-.35,.35-.67,.14-.99-.18-.28-.51-.36-.94-.22-.24,.08-.47,.19-.71,.27-.12,.04-.14,.08-.1,.2,.25,.62,.49,1.25,.73,1.88,.13,.34,.13,.34,.47,.18,.08-.04,.09-.07,.06-.14-.09-.21-.15-.43-.26-.63-.09-.18,0-.21,.13-.26,.08-.02,.17,0,.23,.06,.23,.16,.45,.32,.68,.49,.07,.06,.16,.08,.25,.05,.13-.04,.26-.09,.37-.16l-1.05-.72Zm-13.69,6.42c.75-.02,1.33-.6,1.3-1.28-.03-.75-.6-1.32-1.28-1.31-.73,.02-1.32,.6-1.29,1.29,.03,.73,.6,1.32,1.27,1.3m-18.36,7.12c.75-.02,1.33-.59,1.31-1.27-.02-.75-.6-1.34-1.3-1.32-.73,.02-1.3,.6-1.28,1.29,.02,.73,.6,1.32,1.27,1.3m-4.39-.31l-1.83,.72c-.09,.04-.2,.08-.3,.11-.07,.02-.12,.06-.12,.14,0,.12-.08,.15-.2,.17-.31,.04-.48-.11-.61-.37-.1-.22-.17-.45-.21-.69-.04-.24,.09-.4,.28-.52,.36-.23,.77-.38,1.16-.56,3.07-1.46,6.26-2.65,9.44-3.84,3.01-1.13,6.03-2.24,9.04-3.36,2.13-.8,4.21-1.74,6.28-2.7,3.24-1.5,6.52-2.91,9.86-4.15,1.61-.6,3.15-1.38,4.71-2.11,1.08-.51,2.16-1.04,3.29-1.43,.58-.2,1.18-.36,1.78-.55,.08-.03,.17,0,.21,.08,.28,.38,.47,.79,.36,1.29-.01,.09,0,.19,.02,.28,.03,.14-.02,.28-.13,.37-.41,.38-.89,.65-1.38,.89-.72,.34-1.38,.78-2.06,1.19-.03,.03-.06,.06-.09,.09,.62-.16,1.19-.3,1.75-.47,1.17-.34,2.27-.86,3.39-1.32l.25-.1c.27-.11,.3-.1,.44,.16,.07,.15,.13,.3,.16,.47,.05,.2-.07,.31-.22,.4-.79,.49-1.55,1.03-2.29,1.6-1.18,.92-2.48,1.68-3.86,2.25-1.73,.73-3.38,1.58-5.03,2.46-1.95,1.05-4,1.89-6.07,2.69-2.93,1.14-5.9,2.17-8.87,3.2-3.67,1.28-7.35,2.49-11.01,3.81-2.15,.77-4.28,1.59-6.37,2.51-.88,.38-1.73,.84-2.59,1.26-.25,.12-.39,.09-.56-.12-.2-.23-.36-.49-.48-.77-.04-.1-.09-.13-.19-.1-.36,.12-.42,.09-.53-.29-.08-.27-.05-.34,.21-.41,.19-.05,.22-.14,.17-.3-.05-.22-.05-.45-.02-.68,.01-.17,.12-.27,.27-.34,.58-.28,1.15-.56,1.73-.85,.08-.03,.15-.08,.21-.14"/><path class="cls-1" d="M43.27,0c-.02,.11-.08,.2-.17,.27-1.25,.79-2.07,1.9-2.53,3.3-.37,1.13-.75,2.26-1.06,3.4-.1,.36-.1,.74-.13,1.11-.07,.64-.19,1.27-.29,1.91-.13,.85-.1,1.71,.28,2.5,.26,.55,.73,.67,1.27,.41,.25-.12,.48-.29,.66-.5,.19-.22,.35-.47,.45-.74,.36-.94,.73-1.88,1.07-2.83,.35-.98,.5-2,.73-3.01,.14-.63,.31-1.25,.46-1.87,.13-.56,.19-1.14,.19-1.71,0-.14,.02-.29,.06-.43,.02-.07,0-.17,.11-.18,.1-.01,.09,.09,.13,.14,.36,.57,.59,1.2,.8,1.83,.56,1.66,1.18,3.31,1.79,4.95,.35,.94,.51,1.93,.62,2.92,.02,.13,.02,.28-.11,.33-.15,.06-.24-.07-.33-.19-.42-.59-.68-1.26-.94-1.93-.49-1.28-.99-2.56-1.49-3.84-.04-.09-.08-.18-.13-.27-.1-.16-.12-.16-.22,.01-.15,.26-.15,.55-.18,.83-.19,1.97-.68,3.91-1.45,5.73-.35,.86-1.01,1.56-1.85,1.95-.98,.46-1.92,.23-2.58-.63-.2-.28-.37-.57-.52-.88-.1-.19-.17-.21-.33-.07-2.32,1.96-4.83,3.68-7.21,5.55-1.25,.98-2.52,1.92-3.8,2.85-.73,.53-1.39,1.16-2.15,1.66-.08,.06-.17,.1-.26,.14-.04,.02-.09,.01-.12-.02-.04-.04,0-.07,.02-.1,.15-.45,.5-.77,.79-1.13,1.02-1.27,2.24-2.34,3.49-3.37,1.74-1.44,3.53-2.8,5.46-3.97,1.03-.62,2.13-1.09,3.22-1.58,.16-.07,.31-.15,.47-.21,.16-.06,.26-.22,.25-.38,.03-.53,.03-1.05,.03-1.58,0-.61,.12-1.2,.24-1.8,.17-.87,.3-1.75,.58-2.6,.48-1.48,1.09-2.9,2.01-4.18,.58-.81,1.37-1.37,2.29-1.76,.13-.06,.27-.04,.42-.04"/><path class="cls-1" d="M11.54,21.15c-.16,.3-.29,.58-.44,.84-.78,1.37-1.47,2.79-2.28,4.14-.4,.66-.91,1.23-1.33,1.87-.5,.75-1.18,1.37-1.97,1.81-.68,.39-1.36,.4-2.07,.1-.93-.4-1.56-1.09-2.07-1.95-.74-1.25-1.08-2.61-1.34-4.01-.08-.44-.03-.9,.03-1.34,.07-.57,.11-1.13,.13-1.7,.05-1.1,.2-2.19,.47-3.26,.29-1.17,.56-2.35,.88-3.52,.26-.93,.68-1.81,1.04-2.71,.32-.8,.58-1.63,.93-2.41,.16-.39,.43-.72,.78-.95,.57-.37,1.16-.34,1.67,.12,.43,.4,.74,.9,1.06,1.38,.61,.91,.89,1.94,1.18,2.97,.06,.22,.12,.44,.17,.66,.01,.05,.03,.11-.03,.13-.06,.02-.08-.05-.11-.08-.26-.34-.4-.74-.6-1.11-.48-.91-1.03-1.78-1.59-2.65-.1-.16-.22-.3-.36-.41-.44-.33-.97-.16-1.13,.35-.5,1.6-1.03,3.19-1.54,4.78-.39,1.21-.64,2.44-.86,3.68-.21,1.14-.3,2.29-.46,3.44-.06,.43-.15,.86-.18,1.29-.04,.62,.08,1.22,.15,1.83,.13,.98,.42,1.94,.88,2.82,.2,.43,.5,.81,.86,1.12,.54,.44,1.13,.49,1.75,.2,.64-.3,1.11-.81,1.53-1.36,1.53-1.95,3.05-3.91,4.6-5.84,.06-.09,.15-.16,.24-.21"/><path class="cls-1" d="M23.57,22.93c0,.08-.02,.15-.03,.23-.01,.06,0,.14-.09,.15-.08,.01-.13-.05-.18-.11-.5-.62-.79-1.34-1.12-2.06-.57-1.25-.97-2.55-1.41-3.84-.04-.16-.12-.32-.22-.45-.04-.04-.05-.13-.13-.11-.08,.02-.08,.11-.1,.17-.07,.38-.13,.77-.2,1.16-.14,.85-.23,1.71-.43,2.54-.24,1.01-.61,1.99-.99,2.95-.36,.97-1.13,1.73-2.1,2.09-.42,.16-.9,.15-1.3-.05-.87-.38-1.39-1.04-1.58-1.97-.03-.17-.07-.33-.1-.5-.04-.21-.1-.42-.02-.65,.08-.23,.04-.45,0-.68-.07-.51,.05-1.01,.15-1.5,.19-.9,.31-1.8,.57-2.68,.28-.95,.63-1.87,1.06-2.77,.32-.66,.81-1.22,1.21-1.83,.52-.79,1.27-1.27,2.13-1.61,.11-.03,.22-.05,.33-.06,.05,0,.11-.01,.13,.05,.02,.06-.03,.08-.06,.1-.1,.07-.19,.14-.29,.21-.94,.58-1.55,1.45-2.07,2.4-.4,.75-.61,1.57-.88,2.37-.4,1.18-.56,2.4-.76,3.62-.16,.94-.16,1.88-.18,2.82-.01,.35,.08,.69,.27,.99,.33,.51,.83,.64,1.36,.34,.47-.27,.83-.69,1.02-1.19,.53-1.27,1.04-2.54,1.36-3.88,.25-1.05,.47-2.12,.71-3.17,.08-.36,.22-.69,.28-1.05,.06-.4,.06-.81,.1-1.21,.02-.14,.02-.28,.04-.41,.01-.08,.03-.17,.13-.19,.08-.01,.17,.02,.21,.1,.11,.14,.2,.29,.26,.46,.87,2.29,1.77,4.58,2.5,6.92,.23,.74,.33,1.51,.42,2.3"/><path class="cls-1" d="M23.51,5.45c-.06-.82-.03-1.65,.08-2.46,.05-.3,.16-.58,.25-.87,.01-.04,.03-.08,.09-.08,.06,0,.08,.04,.1,.08,.17,.32,.2,.67,.25,1.02,.13,.98,.24,1.96,.38,2.93,.15,1.08,.29,2.15,.47,3.22,.16,1,.22,2.01,.34,3.01,.11,.95,.22,1.91,.4,2.85,.04,.26,.05,.52,.04,.78,0,.55-.01,1.1-.01,1.65-.01,.25-.07,.5-.16,.74-.03,.08-.08,.17-.16,.17-.08,0-.12-.1-.14-.18-.17-.74-.35-1.47-.46-2.22-.19-1.27-.4-2.53-.66-3.78-.19-.9-.32-1.81-.48-2.72-.09-.52-.19-1.03-.29-1.55-.03-.23-.04-.45-.02-.68-.01-.64,0-1.28,0-1.92"/><path class="cls-1" d="M55.67,22.57c.01-.87-.68-1.58-1.55-1.59-.01,0-.03,0-.04,0-.88,0-1.59,.71-1.59,1.59s.71,1.59,1.59,1.59,1.59-.71,1.59-1.59h0Zm.29,0c0,1.04-.84,1.88-1.88,1.88-.97,0-1.87-.74-1.87-1.87,0-1.11,.87-1.87,1.89-1.88,1.03,0,1.87,.84,1.87,1.87h0"/><path d="M12.42,33.75c0,.53,.38,.99,.82,.99,.46,0,.81-.34,.81-.78,0-.55-.39-1-.84-.99-.43-.01-.78,.33-.79,.76v.02m.8,1.4c-.67,.02-1.25-.58-1.27-1.3-.02-.69,.55-1.26,1.28-1.28,.7-.02,1.27,.57,1.3,1.31,.02,.69-.56,1.26-1.31,1.27"/><path d="M32.41,26.86c0-.55-.38-1-.84-1-.43-.01-.78,.33-.8,.75h0c0,.55,.38,1.01,.82,1.01,.46,0,.82-.33,.82-.77m-.83,1.18c-.67,.02-1.25-.56-1.27-1.3-.03-.69,.56-1.28,1.29-1.29,.69-.02,1.25,.56,1.29,1.31,.03,.68-.56,1.26-1.3,1.28"/><path d="M44.69,20.73c-.16,.03-.31,.08-.45,.14-.08,.03-.03,.08-.02,.12,.07,.19,.15,.38,.22,.57,.02,.06,.04,.1,.12,.07,.14-.04,.27-.11,.38-.19,.14-.11,.19-.3,.12-.46-.05-.16-.2-.26-.37-.25m.58,.89l1.05,.72c-.12,.07-.24,.13-.37,.17-.09,.03-.18,0-.25-.05-.22-.16-.45-.33-.68-.49-.06-.06-.14-.08-.23-.06-.14,.04-.22,.08-.13,.26,.1,.2,.17,.42,.26,.64,.03,.07,.02,.1-.06,.14-.34,.15-.34,.16-.47-.18-.24-.63-.48-1.25-.73-1.88-.05-.12-.03-.16,.09-.2,.24-.08,.47-.19,.71-.27,.43-.14,.76-.06,.94,.22,.21,.32,.16,.64-.14,.99"/><path d="M28.47,27.02c-.15,.03-.29,.07-.43,.14-.07,.03-.06,.06-.04,.12,.08,.2,.16,.4,.23,.6,.02,.05,.03,.08,.1,.06,.15-.06,.3-.1,.42-.21,.14-.11,.18-.31,.1-.47-.06-.16-.21-.26-.38-.24h0Zm.58,.89l1.07,.73c-.15,.06-.27,.11-.39,.16-.09,.03-.18,0-.24-.06-.22-.16-.45-.31-.66-.48-.09-.08-.23-.09-.34-.03-.09,.04-.09,.08-.06,.16,.1,.22,.17,.45,.27,.67,.04,.1,.04,.14-.07,.18-.32,.12-.32,.13-.44-.18-.25-.63-.49-1.26-.74-1.89-.04-.11-.03-.15,.08-.19,.28-.1,.55-.23,.84-.3,.4-.1,.67,0,.84,.27,.19,.31,.15,.63-.13,.94,0,.01-.02,.02-.02,.04"/><path d="M34.31,24.88v1.01c0,.09,.02,.13,.12,.09,.2-.08,.4-.16,.62-.25l-.74-.85Zm-.43,2.29v-1.1c0-.47,.01-.94,0-1.41-.02-.1,.05-.2,.15-.22,.3-.1,.3-.11,.51,.12,.51,.55,1.02,1.1,1.52,1.65,.03,.03,.05,.06,.07,.09-.01,0-.02,.02-.03,.02-.38,.17-.38,.18-.65-.14-.13-.15-.24-.21-.43-.11-.19,.09-.38,.17-.58,.23-.1,.03-.15,.08-.13,.19,0,.05,0,.1,0,.15,0,.41,0,.42-.44,.52"/><path d="M24.72,30.71c.02,.07-.04,.07-.08,.08-.42,.17-.85,.33-1.27,.5-.08,.03-.11,.01-.14-.06-.28-.71-.55-1.43-.83-2.14-.03-.08,0-.11,.07-.14,.42-.16,.84-.32,1.26-.49,.16-.06,.15,.06,.18,.14,.03,.08,.11,.17-.05,.22-.26,.09-.51,.2-.77,.29-.13,.05-.15,.1-.1,.22,.06,.12,.11,.24,.15,.37,.03,.1,.08,.11,.17,.07,.19-.08,.39-.15,.58-.23,.14-.06,.15,.04,.17,.12,.02,.08,.13,.17-.04,.22-.2,.06-.39,.15-.59,.22-.09,.03-.12,.07-.07,.16,.08,.17,.1,.43,.23,.5,.13,.07,.34-.1,.52-.16,.1-.03,.2-.08,.3-.12,.19-.07,.32,.02,.32,.22"/><path d="M41.97,22.48c.2-.08,.41-.15,.61-.24,.12-.06,.17-.02,.2,.1,.02,.1,.12,.19-.06,.24-.18,.05-.37,.14-.55,.21-.1,.03-.14,.07-.08,.18,.06,.14,.12,.28,.16,.42,.03,.1,.07,.11,.16,.07,.26-.11,.53-.2,.79-.32,.17-.08,.15,.06,.19,.14,.04,.08,.08,.16-.06,.21-.42,.15-.83,.32-1.24,.48-.08,.03-.12,.02-.15-.06-.27-.71-.55-1.42-.83-2.12-.04-.1,0-.12,.07-.15,.42-.16,.84-.32,1.26-.49,.15-.06,.15,.06,.17,.13,.02,.07,.13,.16-.04,.22-.27,.1-.53,.21-.8,.3-.1,.04-.12,.08-.08,.18,.06,.13,.11,.27,.16,.41,.02,.04,.02,.11,.1,.09"/><path d="M21.32,29.39c.1,.05,.09,.17,.13,.25,.04,.08-.01,.1-.07,.12-.25,.1-.5,.21-.77,.29-.15,.05-.17,.12-.1,.24,.06,.11,.1,.23,.14,.35,.03,.1,.08,.11,.17,.07,.19-.08,.39-.15,.58-.23,.14-.06,.15,.04,.17,.12,.02,.08,.13,.16-.04,.22-.2,.06-.39,.15-.59,.22-.09,.03-.12,.07-.08,.17,.08,.17,.1,.43,.23,.5,.13,.07,.34-.09,.52-.16,.13-.04,.25-.09,.37-.15,.16-.08,.16,.03,.2,.12,.04,.09,.09,.17-.06,.23-.41,.15-.82,.31-1.22,.47-.1,.04-.13,.03-.17-.07-.27-.7-.54-1.4-.82-2.11-.02-.06-.05-.11,.04-.15,.43-.16,.86-.34,1.29-.5,.02,0,.04,0,.07-.02"/><path d="M9.13,35.04c0-.91,.84-1.54,1.6-1.32,.08,.02,.17,.04,.12,.16-.04,.1-.01,.26-.21,.23-.08-.02-.16-.02-.24-.03-.34,0-.64,.22-.76,.54-.11,.35,.06,.86,.37,1.09,.26,.19,.6,.19,.91-.01,.1-.06,.17-.15,.23-.25,.1-.18,.2-.03,.3,0,.13,.04,.06,.11,.03,.18-.33,.69-1.35,.87-1.9,.34-.26-.24-.42-.57-.44-.93"/><path d="M47.49,20.33c.08,0,.15-.01,.23,0,.38,.02,.57,.15,.67,.46,.12,.31,.01,.67-.25,.87-.3,.23-.68,.3-1.04,.2-.13-.03-.12-.1-.1-.2,.02-.09,.02-.22,.17-.2,.06,0,.11,.02,.17,.03,.12,.03,.25,.02,.37-.02,.23-.08,.34-.22,.3-.42-.03-.19-.17-.29-.43-.27-.15,0-.29,.03-.44,.03-.33-.01-.55-.17-.64-.47-.1-.27-.01-.58,.21-.76,.26-.22,.61-.31,.94-.24,.18,.03,.11,.15,.11,.24,0,.1-.05,.17-.17,.15-.17-.04-.34-.02-.5,.05-.14,.08-.23,.18-.2,.35,.03,.17,.16,.21,.31,.23,.1,0,.19,0,.29,0h0Z"/><path d="M37.31,24.27c.08,0,.16,0,.25,0,.38,.02,.58,.16,.67,.48,.1,.32-.01,.67-.28,.86-.29,.21-.65,.28-1,.19-.15-.03-.14-.12-.12-.23,.02-.12,.07-.2,.21-.17,.16,.05,.33,.06,.49,.01,.24-.08,.35-.23,.31-.43-.04-.2-.18-.28-.44-.26-.15,0-.29,.03-.44,.03-.29,0-.55-.18-.63-.46-.09-.28,0-.59,.22-.77,.26-.21,.6-.3,.93-.24,.17,.02,.13,.14,.12,.24,0,.1-.05,.18-.18,.16-.16-.04-.33-.02-.48,.04-.15,.08-.24,.19-.21,.36,.03,.18,.17,.21,.31,.22,.09,0,.18,0,.27,0v-.02Z"/><path d="M19.24,31.71c.01,.1-.05,.09-.1,.1-.22,.09-.43,.17-.65,.26-.08,.03-.1,.07-.07,.15,.1,.23,.18,.47,.28,.7,.05,.11,.03,.15-.08,.19-.31,.12-.3,.12-.42-.18-.24-.63-.49-1.26-.74-1.89-.05-.12-.03-.16,.09-.2,.4-.15,.81-.3,1.2-.47,.15-.06,.16,.02,.19,.12,.03,.09,.12,.18-.05,.23-.25,.08-.49,.19-.74,.28-.13,.04-.18,.1-.11,.23,.09,.17,.09,.44,.23,.49,.13,.05,.33-.1,.51-.16,.04-.01,.08-.03,.12-.05,.21-.08,.33,0,.33,.2"/><path d="M16.56,31.62c0,.07-.07,.07-.11,.09-.26,.1-.52,.21-.78,.3-.1,.04-.13,.08-.08,.18,.08,.18,.1,.44,.24,.52,.13,.08,.34-.1,.52-.17,.05-.01,.1-.03,.14-.06,.15-.09,.23-.04,.28,.12,.03,.11,.05,.16-.08,.2-.21,.07-.41,.16-.62,.24-.1,.03-.11,.07-.07,.16,.1,.23,.17,.46,.27,.69,.05,.12,.03,.16-.09,.21-.29,.11-.29,.12-.41-.18-.24-.63-.49-1.27-.74-1.89-.05-.12-.03-.16,.09-.2,.38-.14,.76-.29,1.13-.44,.11-.05,.24,0,.29,.1,.02,.04,.03,.09,.02,.13"/><path d="M40.38,24.65s-.04,.05-.07,.07c-.34,.18-.35,.18-.48-.18-.19-.51-.4-1.02-.59-1.52-.04-.1-.08-.15-.19-.09-.12,.05-.23,.1-.35,.14-.21,.08-.31,.02-.34-.22,0-.07,.04-.07,.07-.09,.55-.22,1.11-.43,1.66-.65,.07-.03,.1-.01,.13,.05,.12,.26,.13,.26-.15,.36-.15,.06-.36,.09-.42,.19-.06,.11,.08,.29,.14,.43,.17,.46,.36,.92,.54,1.38,.01,.04,.02,.07,.04,.12"/><path class="cls-1" d="M54.87,23.45l-.4-.64c.32-.15,.4-.22,.44-.37,.11-.39-.09-.71-.5-.75-.25-.02-.5,0-.75-.02-.13,0-.18,.03-.18,.17,0,.48,0,.96,0,1.44,0,.12,0,.19,.16,.19s.14-.09,.14-.19v-.22c0-.28,0-.27,.27-.27,.08,0,.15,.03,.19,.1,.07,.13,.17,.24,.23,.37,.08,.17,.2,.23,.41,.17h0Zm.87-.88c0,.92-.74,1.66-1.65,1.66-.92,0-1.66-.74-1.66-1.65,0-.92,.74-1.66,1.65-1.66h0c.91,0,1.65,.73,1.65,1.64h0"/><path class="cls-1" d="M12.42,33.75c0-.43,.35-.77,.78-.77h.02c.45,0,.84,.45,.84,.99,0,.44-.35,.78-.81,.78s-.82-.46-.82-1"/><path class="cls-1" d="M32.41,26.86c0,.44-.35,.77-.82,.77-.44,0-.82-.47-.82-1,0-.43,.36-.77,.78-.77h.01c.45,0,.84,.45,.84,.99"/><path class="cls-1" d="M44.69,20.73c.17-.01,.33,.09,.37,.26,.07,.16,.02,.35-.12,.46-.12,.08-.25,.15-.38,.19-.08,.03-.1-.01-.12-.07-.07-.19-.15-.38-.22-.57-.02-.04-.06-.1,.02-.12,.14-.07,.29-.12,.45-.15"/><path class="cls-1" d="M28.47,27.01c.16-.02,.32,.08,.37,.23,.08,.16,.04,.35-.1,.47-.12,.11-.27,.15-.42,.21-.06,.02-.08,0-.1-.06-.08-.2-.15-.4-.23-.6-.02-.05-.03-.1,.04-.12,.14-.06,.28-.11,.43-.14"/><path class="cls-1" d="M34.31,24.88l.75,.85c-.22,.09-.42,.16-.62,.25-.1,.04-.12,0-.12-.09,0-.33,0-.66,0-1.01"/><path d="M53.79,22.24v.23s0,.1,.07,.09c.19-.01,.38,.03,.56-.04,.13-.04,.22-.17,.2-.3,0-.14-.11-.25-.25-.27-.09-.01-.17-.02-.26-.02-.32,0-.32,0-.32,.31h0Zm1.05,1.17c-.2,.05-.31,0-.39-.17-.06-.12-.15-.23-.22-.35-.03-.07-.11-.11-.18-.1-.26,0-.26,0-.26,.26v.21c0,.1,.02,.18-.14,.18s-.15-.07-.15-.19c0-.46,.01-.92,0-1.38,0-.14,.05-.17,.17-.16,.24,.01,.48,0,.72,.01,.39,.04,.59,.34,.48,.72-.04,.15-.11,.21-.42,.36l.38,.62Z"/><path class="cls-1" d="M53.79,22.25c0-.31,0-.31,.32-.31,.09,0,.18,0,.26,.02,.14,.01,.24,.13,.25,.27,.01,.14-.07,.26-.2,.3-.19,.07-.37,.03-.56,.04-.06,0-.07-.04-.07-.09v-.23Z"/></g></g></svg>