<?xml version="1.0" encoding="UTF-8"?><svg id="Capa_2" xmlns="http://www.w3.org/2000/svg" viewBox="0 0 113.3 19.08"><defs><style>.cls-1{fill:#fff;}</style></defs><g id="Capa_1-2"><path class="cls-1" d="M23.52,14.07c-.82-1.66-.71-3.31,.33-4.86,1.36-2.04,3.77-2.71,5.93-1.87,2.97,1.16,4.09,4.49,2.45,7.15-.32,.51-.36,1-.21,1.61-.68-.39-1.21-.1-1.76,.2-.05,.03-.09,.05-.14,.08-.89,.47-1.88,.57-2.85,.42-1.7-.26-2.97-1.19-3.74-2.73m11.51-3.9c-.2-1.15-.81-2.11-1.61-2.99-1.83-2.03-4.12-2.72-6.75-2.29-2.15,.35-3.78,1.56-4.93,3.41-.89,1.43-1.18,3.02-.93,4.64,.34,2.17,1.49,3.89,3.39,5.05,2.42,1.47,4.9,1.4,7.46,.14,.15,.05,.3,.1,.46,.15,.4,.13,.81,.26,1.22,.39,.19,.06,.4,.1,.6,.1,.67,0,1.05-.52,.86-1.16-.07-.23-.14-.45-.22-.67-.1-.3-.21-.61-.29-.91-.05-.18-.04-.41,.03-.57,.4-.82,.7-1.63,.84-2.56,.15-.95,.02-1.83-.14-2.72m76.88,7.72c-.92,.79-2.12,1.19-3.59,1.19-1.06,0-2.04-.24-2.95-.72-.91-.48-1.64-1.17-2.18-2.08l1.76-1.58c.4,.64,.9,1.14,1.52,1.5,.62,.36,1.25,.53,1.9,.53s1.17-.16,1.59-.48c.41-.32,.62-.71,.62-1.18,0-.66-.38-1.17-1.14-1.53-.2-.11-.73-.34-1.61-.67-.29-.12-.54-.23-.76-.33l-.14-.06c-.38-.17-.65-.3-.79-.38-1.42-.74-2.13-1.84-2.13-3.29,0-1.11,.41-2.02,1.24-2.75,.86-.73,1.97-1.09,3.32-1.09,1.9,0,3.36,.69,4.39,2.06l-1.59,1.68c-.79-.97-1.77-1.46-2.92-1.46-.55,0-.98,.14-1.3,.42-.32,.28-.48,.63-.48,1.04,0,.66,.37,1.15,1.11,1.46l1.36,.57c.88,.36,1.5,.64,1.88,.84,1.52,.79,2.28,1.91,2.28,3.37,0,1.17-.46,2.15-1.39,2.94m-20.76-6.98h7.78c-.12-1.04-.52-1.88-1.23-2.51-.7-.64-1.56-.95-2.56-.95s-1.9,.32-2.61,.95c-.72,.64-1.18,1.47-1.38,2.51m10.11,6.29c-1.67,1.24-3.59,1.85-5.77,1.85-2.35,0-4.12-.68-5.34-2.05-1.21-1.37-1.82-3.02-1.82-4.95s.63-3.67,1.88-4.97c1.27-1.32,2.91-1.98,4.93-1.98s3.5,.6,4.71,1.81c1.22,1.22,1.83,2.86,1.83,4.93,0,.43-.03,.87-.1,1.31h-10.43c.2,1.07,.67,1.92,1.43,2.55,.75,.63,1.76,.94,3.01,.94,.76,0,1.56-.13,2.39-.4,.83-.26,1.55-.61,2.14-1.04l1.14,2.01Zm-15.68,1.56h-2.73V0h2.73V18.76Zm-16.15-3.46c.79,.86,1.83,1.29,3.1,1.29s2.27-.44,3.1-1.31c.81-.86,1.21-1.92,1.21-3.19s-.4-2.31-1.21-3.17c-.83-.88-1.86-1.31-3.1-1.31s-2.3,.44-3.1,1.31c-.79,.86-1.19,1.92-1.19,3.19s.4,2.34,1.19,3.19m7.28,1.63c-1.21,1.43-2.73,2.15-4.56,2.15-1.93,0-3.53-.68-4.78-2.03-1.26-1.35-1.88-3.04-1.88-5.05s.63-3.65,1.88-4.95c1.26-1.3,2.85-1.96,4.78-1.96s3.35,.73,4.56,2.18v-1.86h2.63v13.34h-2.63v-1.83Zm-14.47,.97c-.93,.79-2.12,1.19-3.59,1.19-1.06,0-2.04-.24-2.95-.72-.91-.48-1.64-1.17-2.18-2.08l1.76-1.58c.4,.64,.9,1.14,1.52,1.5,.62,.36,1.25,.53,1.9,.53s1.17-.16,1.59-.48c.41-.32,.62-.71,.62-1.18,0-.66-.38-1.17-1.14-1.53-.2-.11-.74-.34-1.61-.67-.29-.12-.54-.23-.76-.33l-.14-.06c-.38-.17-.65-.3-.79-.38-1.42-.74-2.13-1.84-2.13-3.29,0-1.11,.41-2.02,1.24-2.75,.86-.73,1.97-1.09,3.32-1.09,1.9,0,3.36,.69,4.38,2.06l-1.58,1.68c-.79-.97-1.77-1.46-2.92-1.46-.54,0-.98,.14-1.3,.42-.32,.28-.48,.63-.48,1.04,0,.66,.37,1.15,1.12,1.46l1.36,.57c.88,.36,1.5,.64,1.88,.84,1.52,.79,2.28,1.91,2.28,3.37,0,1.17-.46,2.15-1.39,2.94m-21.01-2.6c.79,.86,1.82,1.29,3.1,1.29s2.3-.43,3.1-1.29c.79-.86,1.19-1.93,1.19-3.22s-.4-2.31-1.19-3.17c-.79-.88-1.82-1.31-3.1-1.31s-2.3,.44-3.1,1.31c-.79,.86-1.19,1.91-1.19,3.17s.4,2.36,1.19,3.22m7.24,1.61c-1.16,1.45-2.65,2.18-4.49,2.18-1.93,0-3.53-.67-4.78-2-1.27-1.37-1.91-3.03-1.91-5s.64-3.6,1.91-4.95c1.26-1.35,2.84-2.03,4.76-2.03,1.77,0,3.25,.73,4.46,2.18V0h2.75V18.76h-2.7v-1.85ZM8.3,10.92h7.78c-.12-1.04-.52-1.88-1.23-2.51-.7-.64-1.56-.95-2.56-.95s-1.9,.32-2.61,.95c-.72,.64-1.18,1.47-1.38,2.51m10.11,6.29c-1.67,1.24-3.59,1.85-5.77,1.85-2.35,0-4.13-.68-5.34-2.05-1.21-1.37-1.82-3.02-1.82-4.95s.63-3.67,1.88-4.97c1.27-1.32,2.92-1.98,4.93-1.98s3.5,.6,4.71,1.81c1.22,1.22,1.83,2.86,1.83,4.93,0,.43-.03,.87-.1,1.31H8.3c.2,1.07,.67,1.92,1.43,2.55,.75,.63,1.76,.94,3.01,.94,.76,0,1.56-.13,2.39-.4,.83-.26,1.55-.61,2.14-1.04l1.14,2.01Zm-15.68,1.56H0V0H2.73V18.76Z"/></g></svg>