<?xml version="1.0" encoding="UTF-8"?><svg id="Capa_2" xmlns="http://www.w3.org/2000/svg" viewBox="0 0 113.53 35.66"><defs><style>.cls-1,.cls-2{fill:#fff;}.cls-2{font-family:Cern-Light, Cern;font-size:12.14px;}</style></defs><g id="Capa_1-2"><g><path class="cls-1" d="M26.18,13.09c.03,7.15-5.83,13.16-13.23,13.08C5.87,26.1,0,20.38,0,13.09,0,5.74,5.99-.09,13.25,0c7.22,.09,12.95,6,12.92,13.09Zm-24.95,0c-.03,6.38,5.12,11.87,11.86,11.87,6.61,0,11.82-5.31,11.87-11.76,.05-6.58-5.22-11.97-11.87-11.97-6.74,0-11.89,5.48-11.87,11.86Z"/><path class="cls-1" d="M7.08,19.81c.27-.1,.54-.15,.81-.23,2.87-.88,5.17-3.47,5.68-6.41,.1-.58,.15-1.18,.08-1.77-.05-.41-.21-.75-.57-.99-.37-.24-.5-.63-.39-1.03,.12-.45,.53-.68,1.01-.56,.09,.02,.18,.06,.29,.09V3.78c.28,1.88,.52,3.76,.55,5.67,.03,1.53-.07,3.05-.45,4.54-.34,1.35-.92,2.58-1.88,3.6-.85,.9-1.89,1.48-3.07,1.84-.61,.19-1.23,.3-1.85,.37-.07,0-.13,0-.2,.01Z"/><path class="cls-1" d="M17.46,20.32c-.15-.55-.19-1.11-.17-1.68,.02-.55,.12-1.1,.25-1.64,.09-.36-.05-.51-.42-.51-.39,0-.75,.13-1.11,.23-.9,.27-1.78,.6-2.7,.8-.22,.05-.45,.09-.67,.13v-.04c.92-.83,1.46-1.9,1.85-3.06,.44-1.32,.62-2.67,.58-4.06,0-.02,0-.04,0-.09,.4,.26,.71,.57,.86,1.01,.21,.6,.11,1.18-.09,1.76-.27,.78-.7,1.48-1.14,2.17-.12,.18-.24,.36-.38,.57,.14-.01,.24-.02,.35-.03,.85-.06,1.71-.13,2.56-.05,.23,.02,.45,.06,.67,.14,.22,.08,.34,.23,.35,.48,0,.45-.12,.88-.23,1.32-.22,.84-.47,1.68-.57,2.55Z"/><g><path class="cls-1" d="M90.38,14.91c.15-.45,.29-.89,.43-1.32,.52-1.6,1.04-3.2,1.55-4.8,.04-.14,.11-.17,.24-.17,.8,0,1.6,0,2.4,0,.15,0,.19,.04,.19,.19,0,2.88,0,5.77,0,8.65,0,.15-.04,.19-.19,.19-.56,0-1.13-.01-1.69,0-.18,0-.22-.04-.22-.22,0-1.77,0-3.54,0-5.3v-.24c-.08,.05-.08,.12-.1,.17-.62,1.8-1.24,3.6-1.85,5.41-.05,.15-.12,.19-.27,.19-.34-.01-.69-.01-1.03,0-.14,0-.2-.03-.24-.17-.6-1.77-1.2-3.54-1.81-5.31-.02-.05-.04-.11-.11-.16v.22c0,1.73,0,3.46,0,5.18,0,.18-.05,.24-.23,.23-.56-.01-1.13,0-1.69,0-.14,0-.18-.04-.18-.18,0-2.89,0-5.78,0-8.67,0-.14,.04-.18,.18-.18,.79,0,1.59,0,2.38,0,.14,0,.21,.04,.25,.18,.63,1.98,1.26,3.95,1.89,5.92,.02,.06,.02,.13,.09,.19Z"/><path class="cls-1" d="M103.68,13.13c0-1.44,0-2.88,0-4.31,0-.15,.03-.2,.2-.2,1.14,.01,2.27-.04,3.41,.03,1.51,.08,2.6,.85,3.2,2.26,.18,.43,.24,.89,.25,1.36,0,.66,0,1.32-.02,1.97-.07,1.78-1.47,3.24-3.24,3.37-1.22,.09-2.44,.02-3.67,.04-.13,0-.11-.08-.11-.16,0-.56,0-1.12,0-1.67v-2.68Zm2.1,0c0,.91,0,1.81,0,2.72,0,.11,.01,.17,.15,.17,.38,0,.77,0,1.15,0,.35,0,.65-.14,.9-.39,.41-.39,.6-.89,.62-1.44,.02-.68,0-1.37,0-2.06,0-.24-.05-.47-.12-.69-.26-.79-.81-1.19-1.64-1.19-.3,0-.59,0-.89,0-.15,0-.18,.05-.17,.18,0,.9,0,1.8,0,2.7Z"/><path class="cls-1" d="M96.62,13.13c0-1.43,0-2.86,0-4.3,0-.16,.02-.22,.2-.22,1.84,0,3.67,0,5.51,0,.16,0,.21,.04,.2,.2-.01,.42-.01,.83,0,1.25,0,.16-.05,.19-.19,.19-1.13,0-2.26,0-3.39,0-.19,0-.23,.06-.23,.23,.01,.5,0,1.01,0,1.51,0,.14,.04,.18,.18,.18,.93,0,1.86,0,2.78,0,.16,0,.22,.03,.21,.2-.01,.4-.01,.81,0,1.21,0,.17-.04,.22-.21,.21-.91,0-1.83,0-2.74,0-.19,0-.23,.06-.23,.23,.01,.6,0,1.21,0,1.82,0,.15,.04,.19,.19,.19,1.14,0,2.27,0,3.41,0,.17,0,.21,.05,.21,.21-.01,.4-.01,.81,0,1.21,0,.16-.03,.22-.21,.22-1.84,0-3.67,0-5.51,0-.16,0-.2-.04-.2-.2,0-1.44,0-2.88,0-4.32Z"/><path class="cls-1" d="M50.81,13.24c.56,.16,1.01,.42,1.27,.93,.19,.36,.25,.75,.26,1.15,0,.42-.03,.83,.02,1.25,.04,.32,.12,.62,.34,.86,.05,.05,.08,.11,.05,.18-.03,.07-.11,.04-.16,.04-.11,0-.23-.01-.34,0-.25,.04-.37-.09-.46-.29-.18-.38-.2-.79-.21-1.2,0-.28,0-.55,0-.83,0-.91-.57-1.57-1.47-1.71-.22-.04-.44-.05-.66-.05-.71,0-1.41,0-2.12,0-.19,0-.25,.03-.25,.24,.01,1.22,0,2.43,0,3.65,0,.16-.04,.21-.2,.2-.13-.01-.27-.01-.4,0-.13,.01-.17-.04-.16-.16,0-.07,0-.15,0-.22,0-2.8,0-5.61,0-8.41,0-.17,.03-.23,.22-.23,1.1,.02,2.2-.02,3.31,.03,.32,.01,.63,.08,.93,.18,1.05,.36,1.59,1.16,1.56,2.32-.02,.9-.45,1.54-1.24,1.94-.08,.04-.17,.08-.29,.14Zm-3.72-2.15c0,.56,0,1.13,0,1.69,0,.08-.02,.16,.11,.16,.9-.02,1.8,.05,2.7-.05,.97-.1,1.57-.65,1.68-1.54,.1-.79-.23-1.48-.88-1.81-.27-.13-.55-.21-.85-.23-.88-.07-1.76-.02-2.64-.04-.14,0-.13,.08-.13,.17,0,.55,0,1.1,0,1.65Z"/><path class="cls-1" d="M83.73,13.14c0,1.43,0,2.86,0,4.29,0,.18-.05,.24-.22,.22-.12-.01-.24-.01-.36,0-.15,.02-.18-.04-.18-.18,0-1.26,0-2.51,0-3.77,0-.17-.05-.21-.21-.21-1.57,0-3.13,0-4.7,0-.17,0-.21,.04-.21,.21,0,1.25,0,2.5,0,3.75,0,.16-.04,.22-.2,.2-.15-.01-.3,0-.44,0-.09,0-.12-.03-.12-.12,0-.03,0-.07,0-.1,0-2.86,0-5.73,0-8.59,0-.17,.03-.25,.22-.22,.17,.02,.4-.07,.51,.03,.11,.1,.03,.33,.03,.5,0,1.17,0,2.34,0,3.51,0,.16,.04,.2,.2,.2,1.57,0,3.15,0,4.72,0,.16,0,.2-.04,.2-.2,0-1.27,0-2.54,0-3.81,0-.2,.06-.26,.25-.23,.11,.01,.22,.01,.32,0,.17-.02,.2,.05,.2,.2,0,1.44,0,2.88,0,4.31Z"/><path class="cls-1" d="M33.88,17.77c-.9,0-1.75-.23-2.48-.81-.57-.45-.8-1.06-.79-1.77,0-.09,.03-.13,.12-.13,.17,0,.38-.05,.52,.02,.14,.07,.07,.3,.11,.45,.1,.45,.33,.82,.72,1.07,.96,.61,1.99,.7,3.04,.29,.56-.21,.97-.6,1.07-1.23,.09-.56-.1-1.02-.54-1.37-.41-.33-.89-.52-1.38-.69-.68-.23-1.38-.39-2.02-.73-.27-.14-.54-.3-.77-.51-.98-.92-.83-2.5,.32-3.3,.76-.53,1.62-.64,2.52-.56,.82,.08,1.51,.4,2.04,1.05,.35,.43,.5,.93,.51,1.47,0,.14-.04,.17-.17,.16-.17-.01-.36,.05-.5-.02-.14-.07-.06-.29-.1-.44-.18-.78-.84-1.4-1.69-1.55-.62-.11-1.23-.07-1.81,.19-.78,.36-1.16,1.15-.93,1.9,.13,.43,.43,.7,.81,.91,.58,.33,1.23,.49,1.86,.69,.6,.19,1.17,.45,1.71,.79,1.22,.78,1.31,2.71-.09,3.56-.63,.39-1.33,.53-2.08,.54Z"/><path class="cls-1" d="M54.62,13.13c0-1.44,0-2.88,0-4.31,0-.16,.04-.2,.2-.2,1.67,0,3.33,0,5,0,.15,0,.21,.03,.2,.2,0,.45,0,.45-.45,.45-1.33,0-2.66,0-3.99,0-.17,0-.21,.05-.21,.21,0,.99,0,1.98,0,2.96,0,.17,.05,.21,.21,.21,1.21,0,2.42,0,3.63,0,.16,0,.2,.04,.2,.2,0,.45,0,.45-.45,.45-1.14,0-2.27,0-3.41,0-.16,0-.19,.04-.19,.19,0,1.12,0,2.23,0,3.35,0,.15,.03,.19,.18,.19,1.43,0,2.86,0,4.3,0,.16,0,.2,.04,.19,.2,0,.44,0,.44-.45,.44-1.59,0-3.19,0-4.78,0-.16,0-.2-.05-.2-.2,0-1.44,0-2.88,0-4.31Z"/><path class="cls-1" d="M69.41,12.98c0,.8-.03,1.44,.14,2.07,.22,.8,.63,1.47,1.4,1.85,.91,.46,2.33,.24,2.99-.45,.39-.41,.54-.92,.56-1.47,0-.13,.04-.18,.17-.16,.13,.01,.27,0,.4,0,.13,0,.16,.04,.15,.16-.03,1.66-1.19,2.47-2.29,2.7-.73,.15-1.46,.16-2.16-.13-1.06-.43-1.65-1.27-1.95-2.33-.1-.36-.16-.72-.16-1.09,0-.89-.08-1.79,.08-2.68,.2-1.12,.72-2.03,1.74-2.6,.73-.4,1.53-.43,2.33-.29,.74,.12,1.38,.44,1.86,1.03,.41,.5,.53,1.1,.56,1.73,0,.08-.03,.13-.12,.12,0,0-.01,0-.02,0-.18,0-.4,.06-.53-.02-.13-.08-.06-.32-.09-.48-.14-.92-.87-1.61-1.85-1.75-.67-.1-1.32-.07-1.9,.32-.68,.45-1.03,1.12-1.21,1.9-.13,.57-.1,1.15-.1,1.57Z"/><path class="cls-1" d="M64.67,13.46c0,1.33,0,2.66,0,3.99,0,.15-.03,.22-.19,.2-.13-.02-.27-.01-.4,0-.13,.01-.16-.04-.16-.16,0-.67,0-1.34,0-2.02,0-2,0-3.99,0-5.99,0-.18-.04-.22-.22-.22-.93,0-1.86,0-2.78,0-.14,0-.18-.03-.18-.18,0-.47,0-.47,.46-.47,2.11,0,4.22,0,6.33,0,.15,0,.2,.03,.2,.2-.01,.45,0,.45-.46,.45-.81,0-1.63,0-2.44,0-.14,0-.18,.04-.17,.18,0,1.34,0,2.67,0,4.01Z"/><path class="cls-1" d="M41.84,13.48c0,1.32,0,2.65,0,3.97,0,.15-.03,.22-.2,.2-.17-.02-.4,.05-.51-.03-.12-.1-.04-.34-.04-.52,0-2.54,0-5.08,0-7.62,0-.16-.03-.21-.21-.21-.93,0-1.85,0-2.78,0-.14,0-.2-.02-.19-.18,0-.47,0-.47,.47-.47,2.1,0,4.21,0,6.31,0,.18,0,.22,.05,.22,.22-.01,.43,0,.43-.43,.43-.82,0-1.64,0-2.46,0-.16,0-.2,.05-.2,.2,0,1.34,0,2.67,0,4.01Z"/><path class="cls-1" d="M112.35,8.65c.68,0,1.18,.52,1.18,1.23,0,.7-.51,1.25-1.18,1.25-.67,0-1.18-.53-1.18-1.24,0-.72,.49-1.24,1.17-1.24Zm-.96,1.22c0,.58,.42,1.03,.95,1.04,.54,0,.97-.45,.97-1.02,0-.58-.42-1.03-.96-1.03-.54,0-.97,.44-.97,1.01Z"/><path class="cls-1" d="M111.87,9.84c0-.19,0-.38,0-.56,0-.11,.03-.14,.14-.13,.18,0,.36-.01,.54,.03,.31,.08,.43,.37,.24,.64-.03,.05-.06,.07-.01,.13,.15,.16,.08,.37,.11,.56,.01,.09-.06,.07-.11,.07-.07,0-.16,.02-.16-.09,0-.08,0-.16,0-.24,0-.14-.06-.21-.2-.22-.27-.04-.28-.03-.28,.24,0,.06,0,.12,0,.18,.01,.11-.03,.14-.14,.14-.1,0-.12-.04-.12-.13,0-.2,0-.4,0-.6Zm.26-.27c-.01,.12-.02,.24,.16,.21,.14-.02,.32,0,.32-.21,0-.21-.17-.17-.31-.19-.16-.02-.2,.05-.17,.19Z"/></g><text class="cls-2" transform="translate(60.79 31.6)"><tspan x="0" y="0">Back Bay</tspan></text><rect class="cls-1" x="62.01" y="19.99" width="48.71" height=".65"/></g></g></svg>