<?xml version="1.0" encoding="utf-8"?>
<!-- Generator: Adobe Illustrator 26.3.1, SVG Export Plug-In . SVG Version: 6.00 Build 0)  -->
<svg version="1.1" id="Capa_2_00000037656032074157603060000014605711058882209185_"
	 xmlns="http://www.w3.org/2000/svg" xmlns:xlink="http://www.w3.org/1999/xlink" x="0px" y="0px" viewBox="0 0 113.5 35.7"
	 style="enable-background:new 0 0 113.5 35.7;" xml:space="preserve">
<style type="text/css">
	.st0{fill:#FFFFFF;}
	.st1{enable-background:new    ;}
</style>
<g id="Capa_1-2">
	<g>
		<path class="st0" d="M26.2,13.1c0,7.1-5.8,13.2-13.2,13.1C5.9,26.1,0,20.4,0,13.1C0,5.7,6-0.1,13.2,0C20.5,0.1,26.2,6,26.2,13.1
			L26.2,13.1z M1.2,13.1C1.2,19.5,6.3,25,13.1,25c6.6,0,11.8-5.3,11.9-11.8c0-6.6-5.2-12-11.9-12C6.3,1.2,1.2,6.7,1.2,13.1L1.2,13.1
			z"/>
		<path class="st0" d="M7.1,19.8c0.3-0.1,0.5-0.1,0.8-0.2c2.9-0.9,5.2-3.5,5.7-6.4c0.1-0.6,0.1-1.2,0.1-1.8c-0.1-0.4-0.2-0.8-0.6-1
			c-0.4-0.2-0.5-0.6-0.4-1c0.1-0.4,0.5-0.7,1-0.6c0.1,0,0.2,0.1,0.3,0.1V3.8c0.3,1.9,0.5,3.8,0.6,5.7c0,1.5-0.1,3.1-0.4,4.5
			c-0.3,1.4-0.9,2.6-1.9,3.6c-0.9,0.9-1.9,1.5-3.1,1.8c-0.6,0.2-1.2,0.3-1.8,0.4C7.2,19.8,7.2,19.8,7.1,19.8L7.1,19.8z"/>
		<path class="st0" d="M17.5,20.3c-0.1-0.5-0.2-1.1-0.2-1.7c0-0.5,0.1-1.1,0.2-1.6c0.1-0.4,0-0.5-0.4-0.5c-0.4,0-0.8,0.1-1.1,0.2
			c-0.9,0.3-1.8,0.6-2.7,0.8c-0.2,0-0.4,0.1-0.7,0.1v0c0.9-0.8,1.5-1.9,1.9-3.1c0.4-1.3,0.6-2.7,0.6-4.1c0,0,0,0,0-0.1
			c0.4,0.3,0.7,0.6,0.9,1c0.2,0.6,0.1,1.2-0.1,1.8c-0.3,0.8-0.7,1.5-1.1,2.2c-0.1,0.2-0.2,0.4-0.4,0.6c0.1,0,0.2,0,0.4,0
			c0.9-0.1,1.7-0.1,2.6-0.1c0.2,0,0.5,0.1,0.7,0.1c0.2,0.1,0.3,0.2,0.4,0.5c0,0.5-0.1,0.9-0.2,1.3C17.8,18.6,17.5,19.4,17.5,20.3
			L17.5,20.3z"/>
		<g>
			<path class="st0" d="M90.4,14.9c0.2-0.4,0.3-0.9,0.4-1.3c0.5-1.6,1-3.2,1.6-4.8c0-0.1,0.1-0.2,0.2-0.2c0.8,0,1.6,0,2.4,0
				c0.2,0,0.2,0,0.2,0.2c0,2.9,0,5.8,0,8.6c0,0.1,0,0.2-0.2,0.2c-0.6,0-1.1,0-1.7,0c-0.2,0-0.2,0-0.2-0.2c0-1.8,0-3.5,0-5.3v-0.2
				C93,11.9,93,12,93,12.1c-0.6,1.8-1.2,3.6-1.8,5.4c-0.1,0.1-0.1,0.2-0.3,0.2c-0.3,0-0.7,0-1,0c-0.1,0-0.2,0-0.2-0.2
				c-0.6-1.8-1.2-3.5-1.8-5.3c0-0.1,0-0.1-0.1-0.2v0.2c0,1.7,0,3.5,0,5.2c0,0.2-0.1,0.2-0.2,0.2c-0.6,0-1.1,0-1.7,0
				c-0.1,0-0.2,0-0.2-0.2c0-2.9,0-5.8,0-8.7c0-0.1,0-0.2,0.2-0.2c0.8,0,1.6,0,2.4,0c0.1,0,0.2,0,0.2,0.2c0.6,2,1.3,3.9,1.9,5.9
				C90.3,14.8,90.3,14.9,90.4,14.9L90.4,14.9z"/>
			<path class="st0" d="M103.7,13.1c0-1.4,0-2.9,0-4.3c0-0.1,0-0.2,0.2-0.2c1.1,0,2.3,0,3.4,0c1.5,0.1,2.6,0.9,3.2,2.3
				c0.2,0.4,0.2,0.9,0.2,1.4c0,0.7,0,1.3,0,2c-0.1,1.8-1.5,3.2-3.2,3.4c-1.2,0.1-2.4,0-3.7,0c-0.1,0-0.1-0.1-0.1-0.2
				c0-0.6,0-1.1,0-1.7L103.7,13.1L103.7,13.1z M105.8,13.1c0,0.9,0,1.8,0,2.7c0,0.1,0,0.2,0.2,0.2c0.4,0,0.8,0,1.2,0
				c0.3,0,0.7-0.1,0.9-0.4c0.4-0.4,0.6-0.9,0.6-1.4c0-0.7,0-1.4,0-2.1c0-0.2-0.1-0.5-0.1-0.7c-0.3-0.8-0.8-1.2-1.6-1.2
				c-0.3,0-0.6,0-0.9,0c-0.2,0-0.2,0.1-0.2,0.2C105.8,11.3,105.8,12.2,105.8,13.1z"/>
			<path class="st0" d="M96.6,13.1c0-1.4,0-2.9,0-4.3c0-0.2,0-0.2,0.2-0.2c1.8,0,3.7,0,5.5,0c0.2,0,0.2,0,0.2,0.2c0,0.4,0,0.8,0,1.2
				c0,0.2-0.1,0.2-0.2,0.2c-1.1,0-2.3,0-3.4,0c-0.2,0-0.2,0.1-0.2,0.2c0,0.5,0,1,0,1.5c0,0.1,0,0.2,0.2,0.2c0.9,0,1.9,0,2.8,0
				c0.2,0,0.2,0,0.2,0.2c0,0.4,0,0.8,0,1.2c0,0.2,0,0.2-0.2,0.2c-0.9,0-1.8,0-2.7,0c-0.2,0-0.2,0.1-0.2,0.2c0,0.6,0,1.2,0,1.8
				c0,0.1,0,0.2,0.2,0.2c1.1,0,2.3,0,3.4,0c0.2,0,0.2,0,0.2,0.2c0,0.4,0,0.8,0,1.2c0,0.2,0,0.2-0.2,0.2c-1.8,0-3.7,0-5.5,0
				c-0.2,0-0.2,0-0.2-0.2C96.6,16,96.6,14.6,96.6,13.1L96.6,13.1z"/>
			<path class="st0" d="M50.8,13.2c0.6,0.2,1,0.4,1.3,0.9c0.2,0.4,0.2,0.8,0.3,1.1c0,0.4,0,0.8,0,1.2c0,0.3,0.1,0.6,0.3,0.9
				c0,0,0.1,0.1,0,0.2c0,0.1-0.1,0-0.2,0c-0.1,0-0.2,0-0.3,0c-0.2,0-0.4-0.1-0.5-0.3c-0.2-0.4-0.2-0.8-0.2-1.2c0-0.3,0-0.6,0-0.8
				c0-0.9-0.6-1.6-1.5-1.7c-0.2,0-0.4-0.1-0.7-0.1c-0.7,0-1.4,0-2.1,0c-0.2,0-0.2,0-0.2,0.2c0,1.2,0,2.4,0,3.6c0,0.2,0,0.2-0.2,0.2
				c-0.1,0-0.3,0-0.4,0s-0.2,0-0.2-0.2c0-0.1,0-0.1,0-0.2c0-2.8,0-5.6,0-8.4c0-0.2,0-0.2,0.2-0.2c1.1,0,2.2,0,3.3,0
				c0.3,0,0.6,0.1,0.9,0.2c1,0.4,1.6,1.2,1.6,2.3c0,0.9-0.5,1.5-1.2,1.9C51,13.2,50.9,13.2,50.8,13.2L50.8,13.2z M47.1,11.1
				c0,0.6,0,1.1,0,1.7c0,0.1,0,0.2,0.1,0.2c0.9,0,1.8,0.1,2.7-0.1c1-0.1,1.6-0.6,1.7-1.5c0.1-0.8-0.2-1.5-0.9-1.8
				c-0.3-0.1-0.5-0.2-0.8-0.2c-0.9-0.1-1.8,0-2.6,0c-0.1,0-0.1,0.1-0.1,0.2C47.1,10,47.1,10.5,47.1,11.1L47.1,11.1z"/>
			<path class="st0" d="M83.7,13.1c0,1.4,0,2.9,0,4.3c0,0.2-0.1,0.2-0.2,0.2c-0.1,0-0.2,0-0.4,0c-0.2,0-0.2,0-0.2-0.2
				c0-1.3,0-2.5,0-3.8c0-0.2-0.1-0.2-0.2-0.2c-1.6,0-3.1,0-4.7,0c-0.2,0-0.2,0-0.2,0.2c0,1.2,0,2.5,0,3.8c0,0.2,0,0.2-0.2,0.2
				c-0.2,0-0.3,0-0.4,0c-0.1,0-0.1,0-0.1-0.1c0,0,0-0.1,0-0.1c0-2.9,0-5.7,0-8.6c0-0.2,0-0.2,0.2-0.2c0.2,0,0.4-0.1,0.5,0
				c0.1,0.1,0,0.3,0,0.5c0,1.2,0,2.3,0,3.5c0,0.2,0,0.2,0.2,0.2c1.6,0,3.2,0,4.7,0c0.2,0,0.2,0,0.2-0.2c0-1.3,0-2.5,0-3.8
				c0-0.2,0.1-0.3,0.2-0.2c0.1,0,0.2,0,0.3,0c0.2,0,0.2,0.1,0.2,0.2C83.7,10.3,83.7,11.7,83.7,13.1L83.7,13.1z"/>
			<path class="st0" d="M33.9,17.8c-0.9,0-1.8-0.2-2.5-0.8c-0.6-0.5-0.8-1.1-0.8-1.8c0-0.1,0-0.1,0.1-0.1c0.2,0,0.4-0.1,0.5,0
				c0.1,0.1,0.1,0.3,0.1,0.4c0.1,0.4,0.3,0.8,0.7,1.1c1,0.6,2,0.7,3,0.3c0.6-0.2,1-0.6,1.1-1.2c0.1-0.6-0.1-1-0.5-1.4
				c-0.4-0.3-0.9-0.5-1.4-0.7c-0.7-0.2-1.4-0.4-2-0.7c-0.3-0.1-0.5-0.3-0.8-0.5c-1-0.9-0.8-2.5,0.3-3.3c0.8-0.5,1.6-0.6,2.5-0.6
				c0.8,0.1,1.5,0.4,2,1.1c0.3,0.4,0.5,0.9,0.5,1.5c0,0.1,0,0.2-0.2,0.2c-0.2,0-0.4,0.1-0.5,0c-0.1-0.1-0.1-0.3-0.1-0.4
				c-0.2-0.8-0.8-1.4-1.7-1.6c-0.6-0.1-1.2-0.1-1.8,0.2c-0.8,0.4-1.2,1.1-0.9,1.9c0.1,0.4,0.4,0.7,0.8,0.9c0.6,0.3,1.2,0.5,1.9,0.7
				c0.6,0.2,1.2,0.4,1.7,0.8c1.2,0.8,1.3,2.7-0.1,3.6C35.3,17.6,34.6,17.7,33.9,17.8L33.9,17.8z"/>
			<path class="st0" d="M54.6,13.1c0-1.4,0-2.9,0-4.3c0-0.2,0-0.2,0.2-0.2c1.7,0,3.3,0,5,0c0.2,0,0.2,0,0.2,0.2c0,0.4,0,0.4-0.5,0.4
				c-1.3,0-2.7,0-4,0c-0.2,0-0.2,0.1-0.2,0.2c0,1,0,2,0,3c0,0.2,0,0.2,0.2,0.2c1.2,0,2.4,0,3.6,0c0.2,0,0.2,0,0.2,0.2
				c0,0.4,0,0.4-0.5,0.4c-1.1,0-2.3,0-3.4,0c-0.2,0-0.2,0-0.2,0.2c0,1.1,0,2.2,0,3.3c0,0.1,0,0.2,0.2,0.2c1.4,0,2.9,0,4.3,0
				c0.2,0,0.2,0,0.2,0.2c0,0.4,0,0.4-0.5,0.4c-1.6,0-3.2,0-4.8,0c-0.2,0-0.2,0-0.2-0.2C54.6,16,54.6,14.6,54.6,13.1L54.6,13.1z"/>
			<path class="st0" d="M69.4,13c0,0.8,0,1.4,0.1,2.1c0.2,0.8,0.6,1.5,1.4,1.9c0.9,0.5,2.3,0.2,3-0.5c0.4-0.4,0.5-0.9,0.6-1.5
				c0-0.1,0-0.2,0.2-0.2c0.1,0,0.3,0,0.4,0c0.1,0,0.2,0,0.2,0.2c0,1.7-1.2,2.5-2.3,2.7c-0.7,0.1-1.5,0.2-2.2-0.1
				c-1.1-0.4-1.7-1.3-1.9-2.3c-0.1-0.4-0.2-0.7-0.2-1.1c0-0.9-0.1-1.8,0.1-2.7c0.2-1.1,0.7-2,1.7-2.6c0.7-0.4,1.5-0.4,2.3-0.3
				c0.7,0.1,1.4,0.4,1.9,1c0.4,0.5,0.5,1.1,0.6,1.7c0,0.1,0,0.1-0.1,0.1c0,0,0,0,0,0c-0.2,0-0.4,0.1-0.5,0c-0.1-0.1-0.1-0.3-0.1-0.5
				c-0.1-0.9-0.9-1.6-1.8-1.8c-0.7-0.1-1.3-0.1-1.9,0.3c-0.7,0.4-1,1.1-1.2,1.9C69.4,12,69.4,12.6,69.4,13z"/>
			<path class="st0" d="M64.7,13.5c0,1.3,0,2.7,0,4c0,0.1,0,0.2-0.2,0.2c-0.1,0-0.3,0-0.4,0c-0.1,0-0.2,0-0.2-0.2c0-0.7,0-1.3,0-2
				c0-2,0-4,0-6c0-0.2,0-0.2-0.2-0.2c-0.9,0-1.9,0-2.8,0c-0.1,0-0.2,0-0.2-0.2c0-0.5,0-0.5,0.5-0.5c2.1,0,4.2,0,6.3,0
				c0.2,0,0.2,0,0.2,0.2c0,0.4,0,0.4-0.5,0.4c-0.8,0-1.6,0-2.4,0c-0.1,0-0.2,0-0.2,0.2C64.7,10.8,64.7,12.1,64.7,13.5L64.7,13.5z"/>
			<path class="st0" d="M41.8,13.5c0,1.3,0,2.6,0,4c0,0.1,0,0.2-0.2,0.2c-0.2,0-0.4,0-0.5,0c-0.1-0.1,0-0.3,0-0.5c0-2.5,0-5.1,0-7.6
				c0-0.2,0-0.2-0.2-0.2c-0.9,0-1.8,0-2.8,0c-0.1,0-0.2,0-0.2-0.2c0-0.5,0-0.5,0.5-0.5c2.1,0,4.2,0,6.3,0c0.2,0,0.2,0.1,0.2,0.2
				c0,0.4,0,0.4-0.4,0.4c-0.8,0-1.6,0-2.5,0c-0.2,0-0.2,0.1-0.2,0.2C41.8,10.8,41.8,12.1,41.8,13.5L41.8,13.5z"/>
			<path class="st0" d="M112.3,8.6c0.7,0,1.2,0.5,1.2,1.2c0,0.7-0.5,1.2-1.2,1.2s-1.2-0.5-1.2-1.2C111.2,9.2,111.7,8.6,112.3,8.6
				L112.3,8.6z M111.4,9.9c0,0.6,0.4,1,0.9,1c0.5,0,1-0.4,1-1c0-0.6-0.4-1-1-1S111.4,9.3,111.4,9.9L111.4,9.9z"/>
			<path class="st0" d="M111.9,9.8c0-0.2,0-0.4,0-0.6c0-0.1,0-0.1,0.1-0.1c0.2,0,0.4,0,0.5,0c0.3,0.1,0.4,0.4,0.2,0.6
				c0,0.1-0.1,0.1,0,0.1c0.2,0.2,0.1,0.4,0.1,0.6c0,0.1-0.1,0.1-0.1,0.1c-0.1,0-0.2,0-0.2-0.1c0-0.1,0-0.2,0-0.2
				c0-0.1-0.1-0.2-0.2-0.2c-0.3,0-0.3,0-0.3,0.2c0,0.1,0,0.1,0,0.2c0,0.1,0,0.1-0.1,0.1c-0.1,0-0.1,0-0.1-0.1
				C111.9,10.3,111.9,10.1,111.9,9.8L111.9,9.8z M112.1,9.6c0,0.1,0,0.2,0.2,0.2c0.1,0,0.3,0,0.3-0.2s-0.2-0.2-0.3-0.2
				C112.1,9.4,112.1,9.4,112.1,9.6z"/>
		</g>
		<g class="st1">
			<path class="st0" d="M61.9,31.6V23H65c0.9,0,1.6,0.2,2.1,0.6c0.5,0.4,0.7,0.9,0.7,1.6c0,0.5-0.1,0.9-0.4,1.2
				c-0.3,0.4-0.6,0.6-1.1,0.7v0c0,0,0,0,0,0c0.5,0.1,0.9,0.3,1.2,0.7c0.3,0.4,0.5,0.8,0.5,1.4c0,0.3,0,0.6-0.1,0.9
				c-0.1,0.3-0.2,0.5-0.4,0.8c-0.2,0.2-0.5,0.4-0.9,0.6s-0.9,0.2-1.5,0.2H61.9z M62.7,26.8h2.2c0.7,0,1.2-0.1,1.5-0.4
				c0.4-0.3,0.5-0.7,0.5-1.1c0-1.1-0.7-1.6-2-1.6h-2.3V26.8z M62.7,30.9h1.8c0.9,0,1.6-0.1,2-0.4c0.4-0.2,0.7-0.7,0.7-1.4
				c0-1.1-0.8-1.7-2.3-1.7h-2.2V30.9z"/>
			<path class="st0" d="M69.4,27.2c0-0.6,0.2-1.2,0.7-1.5c0.4-0.4,1-0.5,1.8-0.5c0.8,0,1.4,0.2,1.7,0.6s0.5,1.1,0.5,2v3.8h-0.4
				l-0.3-1c-0.3,0.4-0.5,0.7-0.9,0.9s-0.8,0.3-1.3,0.3c-0.6,0-1.1-0.2-1.5-0.5c-0.4-0.3-0.6-0.8-0.6-1.4c0-0.3,0-0.5,0.1-0.7
				s0.2-0.4,0.3-0.5c0.1-0.1,0.3-0.2,0.6-0.3c0.3-0.1,0.5-0.2,0.7-0.2s0.5-0.1,0.9-0.2l1.6-0.3v-0.4c0-1-0.5-1.5-1.6-1.5
				c-0.5,0-0.9,0.1-1.2,0.4c-0.3,0.2-0.5,0.6-0.5,1.1H69.4z M73.4,28.2l-0.8,0.1c-1,0.2-1.7,0.3-1.9,0.4c-0.5,0.2-0.8,0.6-0.8,1.1
				c0,0.4,0.1,0.7,0.4,0.9s0.6,0.3,1,0.3c0.6,0,1.1-0.2,1.5-0.6c0.4-0.4,0.6-0.9,0.6-1.6V28.2z"/>
			<path class="st0" d="M80.9,27.4h-0.8c-0.1-0.5-0.3-0.8-0.6-1.1c-0.3-0.3-0.7-0.4-1.2-0.4c-0.6,0-1.2,0.3-1.5,0.8
				c-0.4,0.5-0.6,1.1-0.6,1.9c0,0.8,0.2,1.4,0.6,1.9c0.4,0.5,0.9,0.8,1.6,0.8c0.5,0,0.9-0.2,1.2-0.5s0.5-0.7,0.6-1.2h0.7
				c-0.1,0.7-0.4,1.3-0.8,1.7c-0.5,0.4-1,0.6-1.7,0.6c-0.9,0-1.6-0.3-2.1-0.9c-0.5-0.6-0.8-1.4-0.8-2.4c0-1,0.3-1.8,0.8-2.4
				s1.2-0.9,2.1-0.9c0.7,0,1.3,0.2,1.7,0.6C80.6,26.2,80.8,26.7,80.9,27.4z"/>
			<path class="st0" d="M82.4,31.6V23h0.7v5.2l3.1-2.8h1l-2.9,2.5l3.1,3.7h-1l-2.7-3.3L83.1,29v2.6H82.4z"/>
			<path class="st0" d="M92,31.6V23H95c0.9,0,1.6,0.2,2.1,0.6c0.5,0.4,0.7,0.9,0.7,1.6c0,0.5-0.1,0.9-0.4,1.2
				c-0.3,0.4-0.6,0.6-1.1,0.7v0c0,0,0,0,0,0c0.5,0.1,0.9,0.3,1.2,0.7c0.3,0.4,0.5,0.8,0.5,1.4c0,0.3,0,0.6-0.1,0.9
				c-0.1,0.3-0.2,0.5-0.4,0.8c-0.2,0.2-0.5,0.4-0.9,0.6s-0.9,0.2-1.5,0.2H92z M92.7,26.8H95c0.7,0,1.2-0.1,1.5-0.4
				c0.4-0.3,0.5-0.7,0.5-1.1c0-1.1-0.7-1.6-2-1.6h-2.3V26.8z M92.7,30.9h1.8c0.9,0,1.6-0.1,2-0.4c0.4-0.2,0.7-0.7,0.7-1.4
				c0-1.1-0.8-1.7-2.3-1.7h-2.2V30.9z"/>
			<path class="st0" d="M99.5,27.2c0-0.6,0.2-1.2,0.7-1.5c0.4-0.4,1-0.5,1.8-0.5c0.8,0,1.4,0.2,1.7,0.6s0.5,1.1,0.5,2v3.8h-0.4
				l-0.3-1c-0.3,0.4-0.5,0.7-0.9,0.9s-0.8,0.3-1.3,0.3c-0.6,0-1.1-0.2-1.5-0.5c-0.4-0.3-0.6-0.8-0.6-1.4c0-0.3,0-0.5,0.1-0.7
				s0.2-0.4,0.3-0.5c0.1-0.1,0.3-0.2,0.6-0.3c0.2-0.1,0.5-0.2,0.7-0.2c0.2-0.1,0.5-0.1,0.9-0.2l1.6-0.3v-0.4c0-1-0.5-1.5-1.6-1.5
				c-0.5,0-0.9,0.1-1.2,0.4c-0.3,0.2-0.5,0.6-0.5,1.1H99.5z M103.5,28.2l-0.8,0.1c-1,0.2-1.7,0.3-1.9,0.4c-0.5,0.2-0.8,0.6-0.8,1.1
				c0,0.4,0.1,0.7,0.4,0.9c0.3,0.2,0.6,0.3,1,0.3c0.6,0,1.1-0.2,1.5-0.6s0.6-0.9,0.6-1.6V28.2z"/>
			<path class="st0" d="M105.5,33.8v-0.6c0.2,0,0.4,0.1,0.5,0.1c0.4,0,0.7-0.1,0.9-0.4s0.4-0.7,0.6-1.3c-0.6-1.4-1.4-3.5-2.5-6.2
				h0.8c0.2,0.4,0.4,1,0.6,1.7c0.3,0.7,0.5,1.4,0.8,2c0.2,0.6,0.5,1.2,0.7,1.7c0.9-2.4,1.6-4.2,2-5.4h0.8c-0.3,0.9-0.8,2.1-1.5,3.7
				s-1.1,2.7-1.3,3.4c-0.2,0.5-0.5,0.9-0.7,1.1c-0.3,0.2-0.6,0.3-1.1,0.3C105.9,33.9,105.7,33.8,105.5,33.8z"/>
		</g>
		<rect x="62" y="20" class="st0" width="48.7" height="0.6"/>
	</g>
</g>
</svg>
