<?xml version="1.0" encoding="UTF-8"?><svg id="Capa_2" xmlns="http://www.w3.org/2000/svg" viewBox="0 0 69.03 19.98"><defs><style>.cls-1{fill:#fff;}</style></defs><g id="Capa_1-2"><g><polygon class="cls-1" points="12.81 4.22 8.78 12 4.62 4.22 0 4.22 6.53 16.14 4.39 19.98 8.77 19.98 17.27 4.22 12.81 4.22"/><path class="cls-1" d="M25.52,15.95c-2.3,0-4.01-1.72-4.01-4.17s1.72-4.17,4.01-4.17,4.03,1.72,4.03,4.17-1.72,4.17-4.03,4.17m0-12.13c-4.7,0-8.17,3.41-8.17,7.96s3.47,7.96,8.17,7.96,8.2-3.4,8.2-7.96-3.48-7.96-8.2-7.96"/><path class="cls-1" d="M44.28,15.95c-2.3,0-4.01-1.72-4.01-4.17s1.72-4.17,4.01-4.17,4.03,1.72,4.03,4.17-1.72,4.17-4.03,4.17m0-12.13c-1.49,0-2.85,.34-4.01,.95V0h-4.16V11.78c0,4.56,3.47,7.96,8.17,7.96s8.2-3.4,8.2-7.96-3.48-7.96-8.2-7.96"/><path class="cls-1" d="M58.24,10.36c.36-1.89,1.47-3.03,3.4-3.03,1.76,0,2.92,1.08,3.29,3.03h-6.7Zm10.79,1.4c0-4.72-3-7.95-7.36-7.95s-7.65,3.26-7.65,8.01,3.23,7.92,7.85,7.92h3.84v-3.47h-3.61c-1.92,0-3.48-.95-3.89-3.14h10.73c.05-.36,.08-.89,.08-1.38"/></g></g></svg>